<?xml version="1.0" encoding="UTF-8" standalone="no"?>
<svg
   viewBox="0 0 24 24"
   version="1.1"
   id="svg4"
   sodipodi:docname="calendar-infinity.svg"
   inkscape:version="1.1.2 (0a00cf5339, 2022-02-04)"
   xmlns:inkscape="http://www.inkscape.org/namespaces/inkscape"
   xmlns:sodipodi="http://sodipodi.sourceforge.net/DTD/sodipodi-0.dtd"
   xmlns="http://www.w3.org/2000/svg"
   xmlns:svg="http://www.w3.org/2000/svg">
  <defs
     id="defs8" />
  <sodipodi:namedview
     id="namedview6"
     pagecolor="#ffffff"
     bordercolor="#666666"
     borderopacity="1.0"
     inkscape:pageshadow="2"
     inkscape:pageopacity="0.0"
     inkscape:pagecheckerboard="0"
     showgrid="false"
     inkscape:zoom="26.25"
     inkscape:cx="11.980952"
     inkscape:cy="12.019048"
     inkscape:window-width="1920"
     inkscape:window-height="1012"
     inkscape:window-x="0"
     inkscape:window-y="0"
     inkscape:window-maximized="1"
     inkscape:current-layer="svg4" />
  <path
     d="m 15.349786,10.63669 c -0.720664,0 -1.401291,0.280258 -1.886738,0.765706 l -3.518241,3.122876 c -0.320295,0.320295 -0.745687,0.495456 -1.201106,0.495456 -0.935862,0 -1.701568,-0.755696 -1.701568,-1.691558 0,-0.935862 0.765706,-1.691558 1.701568,-1.691558 0.455419,0 0.880811,0.175161 1.221125,0.515475 l 0.56552,0.500461 0.765706,-0.670618 -0.64059,-0.555511 C 10.144991,10.916948 9.464365,10.63669 8.743701,10.63669 c -1.491374,0 -2.702489,1.211116 -2.702489,2.69248 0,1.481365 1.211115,2.69248 2.702489,2.69248 0.720664,0 1.40129,-0.280258 1.886738,-0.765705 l 3.518241,-3.122877 c 0.320295,-0.320295 0.745686,-0.495456 1.201106,-0.495456 0.935862,0 1.701567,0.755696 1.701567,1.691558 0,0.935862 -0.765705,1.691558 -1.701567,1.691558 -0.450415,0 -0.880811,-0.175161 -1.221125,-0.515475 l -0.580535,-0.505465 -0.750691,0.670618 0.64059,0.560516 c 0.51047,0.505465 1.186092,0.785724 1.911761,0.785724 1.491374,0 2.702489,-1.206111 2.702489,-2.687476 0,-1.501383 -1.211115,-2.69248 -2.702489,-2.69248 z"
     id="path10"
     style="stroke-width:0.500461" />
  <path
     d="M19 3H18V1H16V3H8V1H6V3H5C3.89 3 3 3.9 3 5V19C3 20.11 3.9 21 5 21H19C20.11 21 21 20.11 21 19V5C21 3.9 20.11 3 19 3M19 19H5V9H19V19M19 7H5V5H19V7Z"
     id="path2" />
</svg>
