<?xml version="1.0" encoding="UTF-8" standalone="no"?>
<svg
   viewBox="0 0 24 24"
   version="1.1"
   id="svg4"
   sodipodi:docname="calendar-infinity.svg"
   inkscape:version="1.1.2 (0a00cf5339, 2022-02-04)"
   xmlns:inkscape="http://www.inkscape.org/namespaces/inkscape"
   xmlns:sodipodi="http://sodipodi.sourceforge.net/DTD/sodipodi-0.dtd"
   xmlns="http://www.w3.org/2000/svg"
   xmlns:svg="http://www.w3.org/2000/svg">
  <defs
     id="defs8" />
  <sodipodi:namedview
     id="namedview6"
     pagecolor="#ffffff"
     bordercolor="#666666"
     borderopacity="1.0"
     inkscape:pageshadow="2"
     inkscape:pageopacity="0.0"
     inkscape:pagecheckerboard="0"
     showgrid="false"
     inkscape:zoom="26.25"
     inkscape:cx="11.980952"
     inkscape:cy="12.019048"
     inkscape:window-width="1920"
     inkscape:window-height="1012"
     inkscape:window-x="0"
     inkscape:window-y="0"
     inkscape:window-maximized="1"
     inkscape:current-layer="svg4" />
  <path
     d="M19 3H18V1H16V3H8V1H6V3H5C3.89 3 3 3.9 3 5V19C3 20.11 3.9 21 5 21H19C20.11 21 21 20.11 21 19V5C21 3.9 20.11 3 19 3M19 19H5V9H19V19M19 7H5V5H19V7Z"
     id="path2" />
  <path
     d="M 9.638111,15.077657 V 14.230044 A 0.84761293,0.84761293 0 0 0 8.790498,13.38243 0.84761293,0.84761293 0 0 0 9.638111,12.534818 v -0.847613 c 0,-0.627233 -0.508568,-1.130151 -1.130151,-1.130151 H 6.247659 v 1.130151 H 8.50796 v 1.130151 H 7.37781 v 1.130151 h 1.13015 v 1.13015 H 6.247659 v 1.13015 H 8.50796 a 1.1301506,1.1301506 0 0 0 1.130151,-1.13015"
     id="path166"
     style="stroke-width:0.565075" />
  <path
     d="m 11.489334,10.489641 a 1.1301507,1.1301507 0 0 0 -1.130151,1.130151 v 3.390452 a 1.1301507,1.1301507 0 0 0 1.130151,1.13015 h 1.13015 a 1.1301507,1.1301507 0 0 0 1.130151,-1.13015 v -1.130151 a 1.1301507,1.1301507 0 0 0 -1.130151,-1.130151 h -1.13015 v -1.13015 h 2.260301 v -1.130151 h -2.260301 m 0,3.390452 h 1.13015 v 1.130151 h -1.13015 z"
     id="path255"
     style="stroke-width:0.565075" />
  <path
     d="m 14.66749,10.435781 v 3.390452 h 2.260302 v 1.130151 H 14.66749 v 1.130151 h 2.260302 a 1.1301509,1.1301509 0 0 0 1.130151,-1.13015 v -1.130151 a 1.1301509,1.1301509 0 0 0 -1.130151,-1.130151 h -1.130151 v -1.130151 h 2.260302 v -1.130151 z"
     id="path264"
     style="stroke-width:0.565075" />
</svg>
