<?xml version="1.0" encoding="UTF-8" standalone="no"?>
<svg
   viewBox="0 0 24 24"
   version="1.1"
   id="svg4"
   sodipodi:docname="calendar-infinity.svg"
   inkscape:version="1.1.2 (0a00cf5339, 2022-02-04)"
   xmlns:inkscape="http://www.inkscape.org/namespaces/inkscape"
   xmlns:sodipodi="http://sodipodi.sourceforge.net/DTD/sodipodi-0.dtd"
   xmlns="http://www.w3.org/2000/svg"
   xmlns:svg="http://www.w3.org/2000/svg">
  <defs
     id="defs8" />
  <sodipodi:namedview
     id="namedview6"
     pagecolor="#ffffff"
     bordercolor="#666666"
     borderopacity="1.0"
     inkscape:pageshadow="2"
     inkscape:pageopacity="0.0"
     inkscape:pagecheckerboard="0"
     showgrid="false"
     inkscape:zoom="26.25"
     inkscape:cx="11.980952"
     inkscape:cy="12.019048"
     inkscape:window-width="1920"
     inkscape:window-height="1012"
     inkscape:window-x="0"
     inkscape:window-y="0"
     inkscape:window-maximized="1"
     inkscape:current-layer="svg4" />
  <path
     d="M19 3H18V1H16V3H8V1H6V3H5C3.89 3 3 3.9 3 5V19C3 20.11 3.9 21 5 21H19C20.11 21 21 20.11 21 19V5C21 3.9 20.11 3 19 3M19 19H5V9H19V19M19 7H5V5H19V7Z"
     id="path2" />
  <path
     d="m 11.475623,14.934695 v -0.847613 a 0.84761293,0.84761293 0 0 0 -0.847613,-0.847614 0.84761293,0.84761293 0 0 0 0.847613,-0.847612 v -0.847613 c 0,-0.627233 -0.508568,-1.130151 -1.130151,-1.130151 H 8.0851706 v 1.130151 h 2.2603014 v 1.130151 H 9.2153216 v 1.130151 h 1.1301504 v 1.13015 H 8.0851706 v 1.13015 h 2.2603014 a 1.1301506,1.1301506 0 0 0 1.130151,-1.13015"
     id="path166"
     style="stroke-width:0.565075" />
  <path
     d="m 13.475623,10.320446 a 1.1535621,1.1535621 0 0 0 -1.153562,1.153562 v 3.460687 a 1.1535621,1.1535621 0 0 0 1.153562,1.153562 h 1.153562 a 1.1535621,1.1535621 0 0 0 1.153562,-1.153562 v -3.460687 a 1.1535621,1.1535621 0 0 0 -1.153562,-1.153562 h -1.153562 m 0,1.153562 h 1.153562 v 3.460687 h -1.153562 z"
     id="path456"
     style="stroke-width:0.576781" />
</svg>
